<svg xmlns="http://www.w3.org/2000/svg" width="60" height="55" fill="none"><g clip-path="url(#a)"><path stroke="#fff" stroke-linecap="round" stroke-linejoin="round" stroke-width="30" d="M43.699 44.786h-27.13a3.66 3.66 0 0 1-3.653-3.667V21.607l17.218-11.393L47.35 21.607V41.12a3.66 3.66 0 0 1-3.652 3.667Z"/><path fill="#7837F3" d="M29.385 38.31a7.425 7.425 0 0 1-6.158-3.282 1.181 1.181 0 0 1 .313-1.636 1.17 1.17 0 0 1 1.63.314 5.081 5.081 0 0 0 4.215 2.247c1.69 0 3.266-.84 4.215-2.247a1.171 1.171 0 0 1 1.63-.314c.537.365.678 1.098.314 1.636a7.425 7.425 0 0 1-6.159 3.282Z"/><path fill="#7837F3" d="M29.385 38.31a7.425 7.425 0 0 1-6.158-3.282 1.181 1.181 0 0 1 .313-1.636 1.17 1.17 0 0 1 1.63.314 5.081 5.081 0 0 0 4.215 2.247c1.69 0 3.266-.84 4.215-2.247a1.171 1.171 0 0 1 1.63-.314c.537.365.678 1.098.314 1.636a7.425 7.425 0 0 1-6.159 3.282ZM36.781 28.19c.944 0 1.71-.769 1.71-1.716 0-.948-.766-1.717-1.71-1.717s-1.71.769-1.71 1.717c0 .947.766 1.716 1.71 1.716ZM23.722 26.474c0 .947-.765 1.716-1.709 1.716-.944 0-1.71-.769-1.71-1.716 0-.948.766-1.717 1.71-1.717s1.71.769 1.71 1.717Z"/><path fill="#7837F3" d="M36.65 25.581a.89.89 0 0 0-.89.892.89.89 0 0 0 .89.893h.262c.491 0 .89-.4.89-.893a.89.89 0 0 0-.89-.892h-.262Z"/><path fill="#7837F3" d="M36.65 25.581a.89.89 0 0 0-.89.892.89.89 0 0 0 .89.893h.262c.491 0 .89-.4.89-.893a.89.89 0 0 0-.89-.892h-.262ZM21.881 25.581a.89.89 0 0 0-.888.892.89.89 0 0 0 .889.893h.262a.89.89 0 0 0 .89-.893.89.89 0 0 0-.89-.892h-.262Z"/><path fill="#7837F3" d="M21.881 25.581a.89.89 0 0 0-.888.892.89.89 0 0 0 .889.893h.262a.89.89 0 0 0 .89-.893.89.89 0 0 0-.89-.892h-.262Z"/></g><defs><clipPath id="a"><path fill="#fff" d="M0 0h60v55H0z"/></clipPath></defs></svg>